<?xml version="1.0" encoding="UTF-8" standalone="no"?><svg xmlns="http://www.w3.org/2000/svg" xmlns:xlink="http://www.w3.org/1999/xlink" contentScriptType="application/ecmascript" contentStyleType="text/css" height="326px" preserveAspectRatio="none" style="width:1930px;height:326px;" version="1.1" viewBox="0 0 1930 326" width="1930px" zoomAndPan="magnify"><defs><filter height="300%" id="f8yika5" width="300%" x="-1" y="-1"><feGaussianBlur result="blurOut" stdDeviation="2.0"/><feColorMatrix in="blurOut" result="blurOut2" type="matrix" values="0 0 0 0 0 0 0 0 0 0 0 0 0 0 0 0 0 0 .4 0"/><feOffset dx="4.0" dy="4.0" in="blurOut2" result="blurOut3"/><feBlend in="SourceGraphic" in2="blurOut3" mode="normal"/></filter></defs><g><!--cluster app::frontend::exceptions--><polygon fill="#FFFFFF" filter="url(#f8yika5)" points="22,24,209,24,216,47.6094,1923,47.6094,1923,319,22,319,22,24" style="stroke: #000000; stroke-width: 2.0;"/><line style="stroke: #000000; stroke-width: 2.0;" x1="22" x2="216" y1="47.6094" y2="47.6094"/><text fill="#000000" font-family="sans-serif" font-size="14" font-weight="bold" lengthAdjust="spacingAndGlyphs" textLength="181" x="26" y="40.5332">app::frontend::exceptions</text><!--class app::frontend::exceptions.UMLConversionException--><rect fill="#FEFECE" filter="url(#f8yika5)" height="103.3438" style="stroke: #A80036; stroke-width: 1.5;" width="258" x="38" y="193"/><ellipse cx="92.25" cy="209" fill="#ADD1B2" rx="11" ry="11" style="stroke: #A80036; stroke-width: 1.0;"/><path d="M95.0156,204.875 Q95.1719,204.6563 95.3594,204.5469 Q95.5469,204.4375 95.7656,204.4375 Q96.1406,204.4375 96.375,204.6953 Q96.6094,204.9531 96.6094,205.5625 L96.6094,207.0156 Q96.6094,207.625 96.375,207.8906 Q96.1406,208.1563 95.7656,208.1563 Q95.4219,208.1563 95.2188,207.9531 Q95.0156,207.7656 94.9063,207.25 Q94.8594,206.8906 94.6719,206.7031 Q94.3438,206.3281 93.7344,206.1094 Q93.125,205.8906 92.5,205.8906 Q91.7344,205.8906 91.1016,206.2188 Q90.4688,206.5469 89.9766,207.2969 Q89.4844,208.0469 89.4844,209.0781 L89.4844,210.1719 Q89.4844,211.4063 90.375,212.2266 Q91.2656,213.0469 92.8594,213.0469 Q93.7969,213.0469 94.4531,212.7969 Q94.8438,212.6406 95.2656,212.2031 Q95.5313,211.9375 95.6797,211.8594 Q95.8281,211.7813 96.0313,211.7813 Q96.3594,211.7813 96.6172,212.0391 Q96.875,212.2969 96.875,212.6406 Q96.875,212.9844 96.5313,213.3906 Q96.0313,213.9688 95.2344,214.2969 Q94.1563,214.75 92.8594,214.75 Q91.3438,214.75 90.1406,214.125 Q89.1563,213.625 88.4688,212.5547 Q87.7813,211.4844 87.7813,210.2031 L87.7813,209.0469 Q87.7813,207.7188 88.3984,206.5703 Q89.0156,205.4219 90.1094,204.8047 Q91.2031,204.1875 92.4375,204.1875 Q93.1719,204.1875 93.8203,204.3516 Q94.4688,204.5156 95.0156,204.875 Z "/><text fill="#000000" font-family="sans-serif" font-size="12" lengthAdjust="spacingAndGlyphs" textLength="141" x="112.75" y="213.9102">UMLConversionException</text><line style="stroke: #A80036; stroke-width: 1.5;" x1="39" x2="295" y1="225" y2="225"/><line style="stroke: #A80036; stroke-width: 1.5;" x1="39" x2="295" y1="233" y2="233"/><text fill="#000000" font-family="sans-serif" font-size="11" lengthAdjust="spacingAndGlyphs" textLength="246" x="44" y="248.4189">«ctor»UMLConversionException (message : String)</text><text fill="#000000" font-family="sans-serif" font-size="11" lengthAdjust="spacingAndGlyphs" textLength="209" x="44" y="262.2549">this (message : String,  cause : Throwable)</text><text fill="#000000" font-family="sans-serif" font-size="11" lengthAdjust="spacingAndGlyphs" textLength="119" x="44" y="276.0908">this (cause : Throwable)</text><text fill="#000000" font-family="sans-serif" font-size="11" lengthAdjust="spacingAndGlyphs" textLength="28" x="44" y="289.9268">this ()</text><!--class app::frontend::exceptions.NoParametersProvidedException--><rect fill="#FEFECE" filter="url(#f8yika5)" height="103.3438" style="stroke: #A80036; stroke-width: 1.5;" width="292" x="331" y="193"/><ellipse cx="381.75" cy="209" fill="#ADD1B2" rx="11" ry="11" style="stroke: #A80036; stroke-width: 1.0;"/><path d="M384.5156,204.875 Q384.6719,204.6563 384.8594,204.5469 Q385.0469,204.4375 385.2656,204.4375 Q385.6406,204.4375 385.875,204.6953 Q386.1094,204.9531 386.1094,205.5625 L386.1094,207.0156 Q386.1094,207.625 385.875,207.8906 Q385.6406,208.1563 385.2656,208.1563 Q384.9219,208.1563 384.7188,207.9531 Q384.5156,207.7656 384.4063,207.25 Q384.3594,206.8906 384.1719,206.7031 Q383.8438,206.3281 383.2344,206.1094 Q382.625,205.8906 382,205.8906 Q381.2344,205.8906 380.6016,206.2188 Q379.9688,206.5469 379.4766,207.2969 Q378.9844,208.0469 378.9844,209.0781 L378.9844,210.1719 Q378.9844,211.4063 379.875,212.2266 Q380.7656,213.0469 382.3594,213.0469 Q383.2969,213.0469 383.9531,212.7969 Q384.3438,212.6406 384.7656,212.2031 Q385.0313,211.9375 385.1797,211.8594 Q385.3281,211.7813 385.5313,211.7813 Q385.8594,211.7813 386.1172,212.0391 Q386.375,212.2969 386.375,212.6406 Q386.375,212.9844 386.0313,213.3906 Q385.5313,213.9688 384.7344,214.2969 Q383.6563,214.75 382.3594,214.75 Q380.8438,214.75 379.6406,214.125 Q378.6563,213.625 377.9688,212.5547 Q377.2813,211.4844 377.2813,210.2031 L377.2813,209.0469 Q377.2813,207.7188 377.8984,206.5703 Q378.5156,205.4219 379.6094,204.8047 Q380.7031,204.1875 381.9375,204.1875 Q382.6719,204.1875 383.3203,204.3516 Q383.9688,204.5156 384.5156,204.875 Z "/><text fill="#000000" font-family="sans-serif" font-size="12" lengthAdjust="spacingAndGlyphs" textLength="182" x="402.25" y="213.9102">NoParametersProvidedException</text><line style="stroke: #A80036; stroke-width: 1.5;" x1="332" x2="622" y1="225" y2="225"/><line style="stroke: #A80036; stroke-width: 1.5;" x1="332" x2="622" y1="233" y2="233"/><text fill="#000000" font-family="sans-serif" font-size="11" lengthAdjust="spacingAndGlyphs" textLength="280" x="337" y="248.4189">«ctor»NoParametersProvidedException (message : String)</text><text fill="#000000" font-family="sans-serif" font-size="11" lengthAdjust="spacingAndGlyphs" textLength="209" x="337" y="262.2549">this (message : String,  cause : Throwable)</text><text fill="#000000" font-family="sans-serif" font-size="11" lengthAdjust="spacingAndGlyphs" textLength="119" x="337" y="276.0908">this (cause : Throwable)</text><text fill="#000000" font-family="sans-serif" font-size="11" lengthAdjust="spacingAndGlyphs" textLength="28" x="337" y="289.9268">this ()</text><!--class app::frontend::exceptions.InvalidParameterException--><rect fill="#FEFECE" filter="url(#f8yika5)" height="117.1797" style="stroke: #A80036; stroke-width: 1.5;" width="372" x="658" y="186"/><ellipse cx="766.75" cy="202" fill="#ADD1B2" rx="11" ry="11" style="stroke: #A80036; stroke-width: 1.0;"/><path d="M769.5156,197.875 Q769.6719,197.6563 769.8594,197.5469 Q770.0469,197.4375 770.2656,197.4375 Q770.6406,197.4375 770.875,197.6953 Q771.1094,197.9531 771.1094,198.5625 L771.1094,200.0156 Q771.1094,200.625 770.875,200.8906 Q770.6406,201.1563 770.2656,201.1563 Q769.9219,201.1563 769.7188,200.9531 Q769.5156,200.7656 769.4063,200.25 Q769.3594,199.8906 769.1719,199.7031 Q768.8438,199.3281 768.2344,199.1094 Q767.625,198.8906 767,198.8906 Q766.2344,198.8906 765.6016,199.2188 Q764.9688,199.5469 764.4766,200.2969 Q763.9844,201.0469 763.9844,202.0781 L763.9844,203.1719 Q763.9844,204.4063 764.875,205.2266 Q765.7656,206.0469 767.3594,206.0469 Q768.2969,206.0469 768.9531,205.7969 Q769.3438,205.6406 769.7656,205.2031 Q770.0313,204.9375 770.1797,204.8594 Q770.3281,204.7813 770.5313,204.7813 Q770.8594,204.7813 771.1172,205.0391 Q771.375,205.2969 771.375,205.6406 Q771.375,205.9844 771.0313,206.3906 Q770.5313,206.9688 769.7344,207.2969 Q768.6563,207.75 767.3594,207.75 Q765.8438,207.75 764.6406,207.125 Q763.6563,206.625 762.9688,205.5547 Q762.2813,204.4844 762.2813,203.2031 L762.2813,202.0469 Q762.2813,200.7188 762.8984,199.5703 Q763.5156,198.4219 764.6094,197.8047 Q765.7031,197.1875 766.9375,197.1875 Q767.6719,197.1875 768.3203,197.3516 Q768.9688,197.5156 769.5156,197.875 Z "/><text fill="#000000" font-family="sans-serif" font-size="12" lengthAdjust="spacingAndGlyphs" textLength="146" x="787.25" y="206.9102">InvalidParameterException</text><line style="stroke: #A80036; stroke-width: 1.5;" x1="659" x2="1029" y1="218" y2="218"/><line style="stroke: #A80036; stroke-width: 1.5;" x1="659" x2="1029" y1="226" y2="226"/><text fill="#000000" font-family="sans-serif" font-size="11" lengthAdjust="spacingAndGlyphs" textLength="360" x="664" y="241.4189">«ctor»InvalidParameterException (message : String,  noSucc : NoSuccess)</text><text fill="#000000" font-family="sans-serif" font-size="11" lengthAdjust="spacingAndGlyphs" textLength="320" x="664" y="255.2549">this (message : String,  cause : Throwable,  noSucc : NoSuccess)</text><text fill="#000000" font-family="sans-serif" font-size="11" lengthAdjust="spacingAndGlyphs" textLength="230" x="664" y="269.0908">this (cause : Throwable,  noSucc : NoSuccess)</text><text fill="#000000" font-family="sans-serif" font-size="11" lengthAdjust="spacingAndGlyphs" textLength="130" x="664" y="282.9268">this (noSucc : NoSuccess)</text><text fill="#000000" font-family="sans-serif" font-size="11" lengthAdjust="spacingAndGlyphs" textLength="129" x="664" y="296.7627">getNoSucc () : NoSuccess</text><!--class app::frontend::exceptions.GithubConfigFailedException--><rect fill="#FEFECE" filter="url(#f8yika5)" height="103.3438" style="stroke: #A80036; stroke-width: 1.5;" width="272" x="1065" y="193"/><ellipse cx="1117.25" cy="209" fill="#ADD1B2" rx="11" ry="11" style="stroke: #A80036; stroke-width: 1.0;"/><path d="M1120.0156,204.875 Q1120.1719,204.6563 1120.3594,204.5469 Q1120.5469,204.4375 1120.7656,204.4375 Q1121.1406,204.4375 1121.375,204.6953 Q1121.6094,204.9531 1121.6094,205.5625 L1121.6094,207.0156 Q1121.6094,207.625 1121.375,207.8906 Q1121.1406,208.1563 1120.7656,208.1563 Q1120.4219,208.1563 1120.2188,207.9531 Q1120.0156,207.7656 1119.9063,207.25 Q1119.8594,206.8906 1119.6719,206.7031 Q1119.3438,206.3281 1118.7344,206.1094 Q1118.125,205.8906 1117.5,205.8906 Q1116.7344,205.8906 1116.1016,206.2188 Q1115.4688,206.5469 1114.9766,207.2969 Q1114.4844,208.0469 1114.4844,209.0781 L1114.4844,210.1719 Q1114.4844,211.4063 1115.375,212.2266 Q1116.2656,213.0469 1117.8594,213.0469 Q1118.7969,213.0469 1119.4531,212.7969 Q1119.8438,212.6406 1120.2656,212.2031 Q1120.5313,211.9375 1120.6797,211.8594 Q1120.8281,211.7813 1121.0313,211.7813 Q1121.3594,211.7813 1121.6172,212.0391 Q1121.875,212.2969 1121.875,212.6406 Q1121.875,212.9844 1121.5313,213.3906 Q1121.0313,213.9688 1120.2344,214.2969 Q1119.1563,214.75 1117.8594,214.75 Q1116.3438,214.75 1115.1406,214.125 Q1114.1563,213.625 1113.4688,212.5547 Q1112.7813,211.4844 1112.7813,210.2031 L1112.7813,209.0469 Q1112.7813,207.7188 1113.3984,206.5703 Q1114.0156,205.4219 1115.1094,204.8047 Q1116.2031,204.1875 1117.4375,204.1875 Q1118.1719,204.1875 1118.8203,204.3516 Q1119.4688,204.5156 1120.0156,204.875 Z "/><text fill="#000000" font-family="sans-serif" font-size="12" lengthAdjust="spacingAndGlyphs" textLength="159" x="1137.75" y="213.9102">GithubConfigFailedException</text><line style="stroke: #A80036; stroke-width: 1.5;" x1="1066" x2="1336" y1="225" y2="225"/><line style="stroke: #A80036; stroke-width: 1.5;" x1="1066" x2="1336" y1="233" y2="233"/><text fill="#000000" font-family="sans-serif" font-size="11" lengthAdjust="spacingAndGlyphs" textLength="260" x="1071" y="248.4189">«ctor»GithubConfigFailedException (message : String)</text><text fill="#000000" font-family="sans-serif" font-size="11" lengthAdjust="spacingAndGlyphs" textLength="209" x="1071" y="262.2549">this (message : String,  cause : Throwable)</text><text fill="#000000" font-family="sans-serif" font-size="11" lengthAdjust="spacingAndGlyphs" textLength="119" x="1071" y="276.0908">this (cause : Throwable)</text><text fill="#000000" font-family="sans-serif" font-size="11" lengthAdjust="spacingAndGlyphs" textLength="28" x="1071" y="289.9268">this ()</text><!--class app::frontend::exceptions.BadOutputPathException--><rect fill="#FEFECE" filter="url(#f8yika5)" height="103.3438" style="stroke: #A80036; stroke-width: 1.5;" width="254" x="1372" y="193"/><ellipse cx="1426.75" cy="209" fill="#ADD1B2" rx="11" ry="11" style="stroke: #A80036; stroke-width: 1.0;"/><path d="M1429.5156,204.875 Q1429.6719,204.6563 1429.8594,204.5469 Q1430.0469,204.4375 1430.2656,204.4375 Q1430.6406,204.4375 1430.875,204.6953 Q1431.1094,204.9531 1431.1094,205.5625 L1431.1094,207.0156 Q1431.1094,207.625 1430.875,207.8906 Q1430.6406,208.1563 1430.2656,208.1563 Q1429.9219,208.1563 1429.7188,207.9531 Q1429.5156,207.7656 1429.4063,207.25 Q1429.3594,206.8906 1429.1719,206.7031 Q1428.8438,206.3281 1428.2344,206.1094 Q1427.625,205.8906 1427,205.8906 Q1426.2344,205.8906 1425.6016,206.2188 Q1424.9688,206.5469 1424.4766,207.2969 Q1423.9844,208.0469 1423.9844,209.0781 L1423.9844,210.1719 Q1423.9844,211.4063 1424.875,212.2266 Q1425.7656,213.0469 1427.3594,213.0469 Q1428.2969,213.0469 1428.9531,212.7969 Q1429.3438,212.6406 1429.7656,212.2031 Q1430.0313,211.9375 1430.1797,211.8594 Q1430.3281,211.7813 1430.5313,211.7813 Q1430.8594,211.7813 1431.1172,212.0391 Q1431.375,212.2969 1431.375,212.6406 Q1431.375,212.9844 1431.0313,213.3906 Q1430.5313,213.9688 1429.7344,214.2969 Q1428.6563,214.75 1427.3594,214.75 Q1425.8438,214.75 1424.6406,214.125 Q1423.6563,213.625 1422.9688,212.5547 Q1422.2813,211.4844 1422.2813,210.2031 L1422.2813,209.0469 Q1422.2813,207.7188 1422.8984,206.5703 Q1423.5156,205.4219 1424.6094,204.8047 Q1425.7031,204.1875 1426.9375,204.1875 Q1427.6719,204.1875 1428.3203,204.3516 Q1428.9688,204.5156 1429.5156,204.875 Z "/><text fill="#000000" font-family="sans-serif" font-size="12" lengthAdjust="spacingAndGlyphs" textLength="136" x="1447.25" y="213.9102">BadOutputPathException</text><line style="stroke: #A80036; stroke-width: 1.5;" x1="1373" x2="1625" y1="225" y2="225"/><line style="stroke: #A80036; stroke-width: 1.5;" x1="1373" x2="1625" y1="233" y2="233"/><text fill="#000000" font-family="sans-serif" font-size="11" lengthAdjust="spacingAndGlyphs" textLength="242" x="1378" y="248.4189">«ctor»BadOutputPathException (message : String)</text><text fill="#000000" font-family="sans-serif" font-size="11" lengthAdjust="spacingAndGlyphs" textLength="209" x="1378" y="262.2549">this (message : String,  cause : Throwable)</text><text fill="#000000" font-family="sans-serif" font-size="11" lengthAdjust="spacingAndGlyphs" textLength="119" x="1378" y="276.0908">this (cause : Throwable)</text><text fill="#000000" font-family="sans-serif" font-size="11" lengthAdjust="spacingAndGlyphs" textLength="28" x="1378" y="289.9268">this ()</text><!--class app::frontend::exceptions.BadInputPathException--><rect fill="#FEFECE" filter="url(#f8yika5)" height="103.3438" style="stroke: #A80036; stroke-width: 1.5;" width="245" x="1661.5" y="193"/><ellipse cx="1716.25" cy="209" fill="#ADD1B2" rx="11" ry="11" style="stroke: #A80036; stroke-width: 1.0;"/><path d="M1719.0156,204.875 Q1719.1719,204.6563 1719.3594,204.5469 Q1719.5469,204.4375 1719.7656,204.4375 Q1720.1406,204.4375 1720.375,204.6953 Q1720.6094,204.9531 1720.6094,205.5625 L1720.6094,207.0156 Q1720.6094,207.625 1720.375,207.8906 Q1720.1406,208.1563 1719.7656,208.1563 Q1719.4219,208.1563 1719.2188,207.9531 Q1719.0156,207.7656 1718.9063,207.25 Q1718.8594,206.8906 1718.6719,206.7031 Q1718.3438,206.3281 1717.7344,206.1094 Q1717.125,205.8906 1716.5,205.8906 Q1715.7344,205.8906 1715.1016,206.2188 Q1714.4688,206.5469 1713.9766,207.2969 Q1713.4844,208.0469 1713.4844,209.0781 L1713.4844,210.1719 Q1713.4844,211.4063 1714.375,212.2266 Q1715.2656,213.0469 1716.8594,213.0469 Q1717.7969,213.0469 1718.4531,212.7969 Q1718.8438,212.6406 1719.2656,212.2031 Q1719.5313,211.9375 1719.6797,211.8594 Q1719.8281,211.7813 1720.0313,211.7813 Q1720.3594,211.7813 1720.6172,212.0391 Q1720.875,212.2969 1720.875,212.6406 Q1720.875,212.9844 1720.5313,213.3906 Q1720.0313,213.9688 1719.2344,214.2969 Q1718.1563,214.75 1716.8594,214.75 Q1715.3438,214.75 1714.1406,214.125 Q1713.1563,213.625 1712.4688,212.5547 Q1711.7813,211.4844 1711.7813,210.2031 L1711.7813,209.0469 Q1711.7813,207.7188 1712.3984,206.5703 Q1713.0156,205.4219 1714.1094,204.8047 Q1715.2031,204.1875 1716.4375,204.1875 Q1717.1719,204.1875 1717.8203,204.3516 Q1718.4688,204.5156 1719.0156,204.875 Z "/><text fill="#000000" font-family="sans-serif" font-size="12" lengthAdjust="spacingAndGlyphs" textLength="127" x="1736.75" y="213.9102">BadInputPathException</text><line style="stroke: #A80036; stroke-width: 1.5;" x1="1662.5" x2="1905.5" y1="225" y2="225"/><line style="stroke: #A80036; stroke-width: 1.5;" x1="1662.5" x2="1905.5" y1="233" y2="233"/><text fill="#000000" font-family="sans-serif" font-size="11" lengthAdjust="spacingAndGlyphs" textLength="233" x="1667.5" y="248.4189">«ctor»BadInputPathException (message : String)</text><text fill="#000000" font-family="sans-serif" font-size="11" lengthAdjust="spacingAndGlyphs" textLength="209" x="1667.5" y="262.2549">this (message : String,  cause : Throwable)</text><text fill="#000000" font-family="sans-serif" font-size="11" lengthAdjust="spacingAndGlyphs" textLength="119" x="1667.5" y="276.0908">this (cause : Throwable)</text><text fill="#000000" font-family="sans-serif" font-size="11" lengthAdjust="spacingAndGlyphs" textLength="28" x="1667.5" y="289.9268">this ()</text><!--class app::frontend::exceptions.Exception--><rect fill="#FEFECE" filter="url(#f8yika5)" height="48" style="stroke: #A80036; stroke-width: 1.5;" width="85" x="973.5" y="60"/><ellipse cx="988.5" cy="76" fill="#ADD1B2" rx="11" ry="11" style="stroke: #A80036; stroke-width: 1.0;"/><path d="M991.2656,71.875 Q991.4219,71.6563 991.6094,71.5469 Q991.7969,71.4375 992.0156,71.4375 Q992.3906,71.4375 992.625,71.6953 Q992.8594,71.9531 992.8594,72.5625 L992.8594,74.0156 Q992.8594,74.625 992.625,74.8906 Q992.3906,75.1563 992.0156,75.1563 Q991.6719,75.1563 991.4688,74.9531 Q991.2656,74.7656 991.1563,74.25 Q991.1094,73.8906 990.9219,73.7031 Q990.5938,73.3281 989.9844,73.1094 Q989.375,72.8906 988.75,72.8906 Q987.9844,72.8906 987.3516,73.2188 Q986.7188,73.5469 986.2266,74.2969 Q985.7344,75.0469 985.7344,76.0781 L985.7344,77.1719 Q985.7344,78.4063 986.625,79.2266 Q987.5156,80.0469 989.1094,80.0469 Q990.0469,80.0469 990.7031,79.7969 Q991.0938,79.6406 991.5156,79.2031 Q991.7813,78.9375 991.9297,78.8594 Q992.0781,78.7813 992.2813,78.7813 Q992.6094,78.7813 992.8672,79.0391 Q993.125,79.2969 993.125,79.6406 Q993.125,79.9844 992.7813,80.3906 Q992.2813,80.9688 991.4844,81.2969 Q990.4063,81.75 989.1094,81.75 Q987.5938,81.75 986.3906,81.125 Q985.4063,80.625 984.7188,79.5547 Q984.0313,78.4844 984.0313,77.2031 L984.0313,76.0469 Q984.0313,74.7188 984.6484,73.5703 Q985.2656,72.4219 986.3594,71.8047 Q987.4531,71.1875 988.6875,71.1875 Q989.4219,71.1875 990.0703,71.3516 Q990.7188,71.5156 991.2656,71.875 Z "/><text fill="#000000" font-family="sans-serif" font-size="12" lengthAdjust="spacingAndGlyphs" textLength="53" x="1002.5" y="80.9102">Exception</text><line style="stroke: #A80036; stroke-width: 1.5;" x1="974.5" x2="1057.5" y1="92" y2="92"/><line style="stroke: #A80036; stroke-width: 1.5;" x1="974.5" x2="1057.5" y1="100" y2="100"/><path d="M1078.68,86.64 C1174.06,90.25 1360.86,101.74 1515,138 C1574.55,152.01 1587.03,163.71 1644,186 C1649.75,188.25 1655.62,190.57 1661.55,192.93 " fill="none" style="stroke: #A80036; stroke-width: 1.0;"/><polygon fill="none" points="1078.4,93.63,1058.66,85.95,1078.89,79.64,1078.4,93.63" style="stroke: #A80036; stroke-width: 1.0;"/><text fill="#000000" font-family="sans-serif" font-size="13" lengthAdjust="spacingAndGlyphs" textLength="161" x="1572" y="152.4951">«ctorBind vals=[message] »</text><path d="M1078.99,90.65 C1138.76,97.37 1230.43,111.22 1306,138 C1345.23,151.9 1386.05,173.09 1419.98,192.84 " fill="none" style="stroke: #A80036; stroke-width: 1.0;"/><polygon fill="none" points="1078.03,97.59,1058.88,88.53,1079.5,83.67,1078.03,97.59" style="stroke: #A80036; stroke-width: 1.0;"/><text fill="#000000" font-family="sans-serif" font-size="13" lengthAdjust="spacingAndGlyphs" textLength="161" x="1345" y="152.4951">«ctorBind vals=[message] »</text><path d="M1076.65,111.6 C1090.61,119.11 1104.9,128 1117,138 C1135.86,153.59 1153.32,174.03 1167.38,192.77 " fill="none" style="stroke: #A80036; stroke-width: 1.0;"/><polygon fill="none" points="1073.4,117.81,1058.69,102.55,1079.7,105.3,1073.4,117.81" style="stroke: #A80036; stroke-width: 1.0;"/><text fill="#000000" font-family="sans-serif" font-size="13" lengthAdjust="spacingAndGlyphs" textLength="161" x="1136" y="152.4951">«ctorBind vals=[message] »</text><path d="M970.2,120.73 C963.33,126.39 956.41,132.27 950,138 C933.16,153.06 915.53,170.07 899.58,185.96 " fill="none" style="stroke: #A80036; stroke-width: 1.0;"/><polygon fill="none" points="965.91,115.2,985.87,108.09,974.7,126.09,965.91,115.2" style="stroke: #A80036; stroke-width: 1.0;"/><text fill="#000000" font-family="sans-serif" font-size="13" lengthAdjust="spacingAndGlyphs" textLength="161" x="951" y="152.4951">«ctorBind vals=[message] »</text><path d="M953.6,95.17 C901.36,104.34 825.12,119.24 760,138 C706.72,153.35 649.16,174.02 599.96,193 " fill="none" style="stroke: #A80036; stroke-width: 1.0;"/><polygon fill="none" points="952.49,88.26,973.39,91.77,954.86,102.05,952.49,88.26" style="stroke: #A80036; stroke-width: 1.0;"/><text fill="#000000" font-family="sans-serif" font-size="13" lengthAdjust="spacingAndGlyphs" textLength="161" x="761" y="152.4951">«ctorBind vals=[message] »</text><path d="M953.22,87.68 C828.75,94.37 542.95,116.6 314,186 C306.92,188.15 299.7,190.48 292.44,192.94 " fill="none" style="stroke: #A80036; stroke-width: 1.0;"/><polygon fill="none" points="953.17,80.67,973.5,86.65,953.88,94.65,953.17,80.67" style="stroke: #A80036; stroke-width: 1.0;"/><text fill="#000000" font-family="sans-serif" font-size="13" lengthAdjust="spacingAndGlyphs" textLength="161" x="503" y="152.4951">«ctorBind vals=[message] »</text></g></svg>