<?xml version="1.0" encoding="UTF-8" standalone="no"?><svg xmlns="http://www.w3.org/2000/svg" xmlns:xlink="http://www.w3.org/1999/xlink" contentScriptType="application/ecmascript" contentStyleType="text/css" height="303px" preserveAspectRatio="none" style="width:1085px;height:303px;" version="1.1" viewBox="0 0 1085 303" width="1085px" zoomAndPan="magnify"><defs><filter height="300%" id="ftfuobw" width="300%" x="-1" y="-1"><feGaussianBlur result="blurOut" stdDeviation="2.0"/><feColorMatrix in="blurOut" result="blurOut2" type="matrix" values="0 0 0 0 0 0 0 0 0 0 0 0 0 0 0 0 0 0 .4 0"/><feOffset dx="4.0" dy="4.0" in="blurOut2" result="blurOut3"/><feBlend in="SourceGraphic" in2="blurOut3" mode="normal"/></filter></defs><g><!--cluster uml::strategies::collecting::packagerep--><polygon fill="#FFFFFF" filter="url(#ftfuobw)" points="22,174,300,174,307,197.6094,1078,197.6094,1078,296,22,296,22,174" style="stroke: #000000; stroke-width: 2.0;"/><line style="stroke: #000000; stroke-width: 2.0;" x1="22" x2="307" y1="197.6094" y2="197.6094"/><text fill="#000000" font-family="sans-serif" font-size="14" font-weight="bold" lengthAdjust="spacingAndGlyphs" textLength="272" x="26" y="190.5332">uml::strategies::collecting::packagerep</text><!--cluster uml::strategies::collecting--><polygon fill="#FFFFFF" filter="url(#ftfuobw)" points="452,24,639,24,646,47.6094,649,47.6094,649,124,452,124,452,24" style="stroke: #000000; stroke-width: 2.0;"/><line style="stroke: #000000; stroke-width: 2.0;" x1="452" x2="646" y1="47.6094" y2="47.6094"/><text fill="#000000" font-family="sans-serif" font-size="14" font-weight="bold" lengthAdjust="spacingAndGlyphs" textLength="181" x="456" y="40.5332">uml::strategies::collecting</text><!--class uml::strategies::collecting::packagerep.CollectAllClassesStrat--><rect fill="#FEFECE" filter="url(#ftfuobw)" height="70.0234" style="stroke: #A80036; stroke-width: 1.5;" width="334" x="38" y="210"/><ellipse cx="139.25" cy="230.0938" fill="#ADD1B2" rx="11" ry="11" style="stroke: #A80036; stroke-width: 1.0;"/><path d="M142.0156,225.9688 Q142.1719,225.75 142.3594,225.6406 Q142.5469,225.5313 142.7656,225.5313 Q143.1406,225.5313 143.375,225.7891 Q143.6094,226.0469 143.6094,226.6563 L143.6094,228.1094 Q143.6094,228.7188 143.375,228.9844 Q143.1406,229.25 142.7656,229.25 Q142.4219,229.25 142.2188,229.0469 Q142.0156,228.8594 141.9063,228.3438 Q141.8594,227.9844 141.6719,227.7969 Q141.3438,227.4219 140.7344,227.2031 Q140.125,226.9844 139.5,226.9844 Q138.7344,226.9844 138.1016,227.3125 Q137.4688,227.6406 136.9766,228.3906 Q136.4844,229.1406 136.4844,230.1719 L136.4844,231.2656 Q136.4844,232.5 137.375,233.3203 Q138.2656,234.1406 139.8594,234.1406 Q140.7969,234.1406 141.4531,233.8906 Q141.8438,233.7344 142.2656,233.2969 Q142.5313,233.0313 142.6797,232.9531 Q142.8281,232.875 143.0313,232.875 Q143.3594,232.875 143.6172,233.1328 Q143.875,233.3906 143.875,233.7344 Q143.875,234.0781 143.5313,234.4844 Q143.0313,235.0625 142.2344,235.3906 Q141.1563,235.8438 139.8594,235.8438 Q138.3438,235.8438 137.1406,235.2188 Q136.1563,234.7188 135.4688,233.6484 Q134.7813,232.5781 134.7813,231.2969 L134.7813,230.1406 Q134.7813,228.8125 135.3984,227.6641 Q136.0156,226.5156 137.1094,225.8984 Q138.2031,225.2813 139.4375,225.2813 Q140.1719,225.2813 140.8203,225.4453 Q141.4688,225.6094 142.0156,225.9688 Z "/><text fill="#000000" font-family="sans-serif" font-size="12" font-style="italic" lengthAdjust="spacingAndGlyphs" textLength="48" x="197.25" y="227.457">«object»</text><text fill="#000000" font-family="sans-serif" font-size="12" lengthAdjust="spacingAndGlyphs" textLength="123" x="159.75" y="242.5508">CollectAllClassesStrat</text><line style="stroke: #A80036; stroke-width: 1.5;" x1="39" x2="371" y1="250.1875" y2="250.1875"/><line style="stroke: #A80036; stroke-width: 1.5;" x1="39" x2="371" y1="258.1875" y2="258.1875"/><text fill="#000000" font-family="sans-serif" font-size="11" lengthAdjust="spacingAndGlyphs" textLength="322" x="44" y="273.6064">apply (v1 : UMLElement,  v2 : List&lt;uml::Class&gt;) () : List&lt;uml::Class&gt;</text><!--class uml::strategies::collecting::packagerep.CollectAllNamespacesStrat--><rect fill="#FEFECE" filter="url(#ftfuobw)" height="70.0234" style="stroke: #A80036; stroke-width: 1.5;" width="286" x="407" y="210"/><ellipse cx="470.25" cy="230.0938" fill="#ADD1B2" rx="11" ry="11" style="stroke: #A80036; stroke-width: 1.0;"/><path d="M473.0156,225.9688 Q473.1719,225.75 473.3594,225.6406 Q473.5469,225.5313 473.7656,225.5313 Q474.1406,225.5313 474.375,225.7891 Q474.6094,226.0469 474.6094,226.6563 L474.6094,228.1094 Q474.6094,228.7188 474.375,228.9844 Q474.1406,229.25 473.7656,229.25 Q473.4219,229.25 473.2188,229.0469 Q473.0156,228.8594 472.9063,228.3438 Q472.8594,227.9844 472.6719,227.7969 Q472.3438,227.4219 471.7344,227.2031 Q471.125,226.9844 470.5,226.9844 Q469.7344,226.9844 469.1016,227.3125 Q468.4688,227.6406 467.9766,228.3906 Q467.4844,229.1406 467.4844,230.1719 L467.4844,231.2656 Q467.4844,232.5 468.375,233.3203 Q469.2656,234.1406 470.8594,234.1406 Q471.7969,234.1406 472.4531,233.8906 Q472.8438,233.7344 473.2656,233.2969 Q473.5313,233.0313 473.6797,232.9531 Q473.8281,232.875 474.0313,232.875 Q474.3594,232.875 474.6172,233.1328 Q474.875,233.3906 474.875,233.7344 Q474.875,234.0781 474.5313,234.4844 Q474.0313,235.0625 473.2344,235.3906 Q472.1563,235.8438 470.8594,235.8438 Q469.3438,235.8438 468.1406,235.2188 Q467.1563,234.7188 466.4688,233.6484 Q465.7813,232.5781 465.7813,231.2969 L465.7813,230.1406 Q465.7813,228.8125 466.3984,227.6641 Q467.0156,226.5156 468.1094,225.8984 Q469.2031,225.2813 470.4375,225.2813 Q471.1719,225.2813 471.8203,225.4453 Q472.4688,225.6094 473.0156,225.9688 Z "/><text fill="#000000" font-family="sans-serif" font-size="12" font-style="italic" lengthAdjust="spacingAndGlyphs" textLength="48" x="542.25" y="227.457">«object»</text><text fill="#000000" font-family="sans-serif" font-size="12" lengthAdjust="spacingAndGlyphs" textLength="151" x="490.75" y="242.5508">CollectAllNamespacesStrat</text><line style="stroke: #A80036; stroke-width: 1.5;" x1="408" x2="692" y1="250.1875" y2="250.1875"/><line style="stroke: #A80036; stroke-width: 1.5;" x1="408" x2="692" y1="258.1875" y2="258.1875"/><text fill="#000000" font-family="sans-serif" font-size="11" lengthAdjust="spacingAndGlyphs" textLength="274" x="413" y="273.6064">apply (v1 : UMLElement,  v2 : List&lt;Entry&gt;) () : List&lt;Entry&gt;</text><!--class uml::strategies::collecting::packagerep.CollectNamespaceObjectsStrat--><rect fill="#FEFECE" filter="url(#ftfuobw)" height="70.0234" style="stroke: #A80036; stroke-width: 1.5;" width="334" x="728" y="210"/><ellipse cx="804.25" cy="230.0938" fill="#ADD1B2" rx="11" ry="11" style="stroke: #A80036; stroke-width: 1.0;"/><path d="M807.0156,225.9688 Q807.1719,225.75 807.3594,225.6406 Q807.5469,225.5313 807.7656,225.5313 Q808.1406,225.5313 808.375,225.7891 Q808.6094,226.0469 808.6094,226.6563 L808.6094,228.1094 Q808.6094,228.7188 808.375,228.9844 Q808.1406,229.25 807.7656,229.25 Q807.4219,229.25 807.2188,229.0469 Q807.0156,228.8594 806.9063,228.3438 Q806.8594,227.9844 806.6719,227.7969 Q806.3438,227.4219 805.7344,227.2031 Q805.125,226.9844 804.5,226.9844 Q803.7344,226.9844 803.1016,227.3125 Q802.4688,227.6406 801.9766,228.3906 Q801.4844,229.1406 801.4844,230.1719 L801.4844,231.2656 Q801.4844,232.5 802.375,233.3203 Q803.2656,234.1406 804.8594,234.1406 Q805.7969,234.1406 806.4531,233.8906 Q806.8438,233.7344 807.2656,233.2969 Q807.5313,233.0313 807.6797,232.9531 Q807.8281,232.875 808.0313,232.875 Q808.3594,232.875 808.6172,233.1328 Q808.875,233.3906 808.875,233.7344 Q808.875,234.0781 808.5313,234.4844 Q808.0313,235.0625 807.2344,235.3906 Q806.1563,235.8438 804.8594,235.8438 Q803.3438,235.8438 802.1406,235.2188 Q801.1563,234.7188 800.4688,233.6484 Q799.7813,232.5781 799.7813,231.2969 L799.7813,230.1406 Q799.7813,228.8125 800.3984,227.6641 Q801.0156,226.5156 802.1094,225.8984 Q803.2031,225.2813 804.4375,225.2813 Q805.1719,225.2813 805.8203,225.4453 Q806.4688,225.6094 807.0156,225.9688 Z "/><text fill="#000000" font-family="sans-serif" font-size="12" font-style="italic" lengthAdjust="spacingAndGlyphs" textLength="48" x="887.25" y="227.457">«object»</text><text fill="#000000" font-family="sans-serif" font-size="12" lengthAdjust="spacingAndGlyphs" textLength="173" x="824.75" y="242.5508">CollectNamespaceObjectsStrat</text><line style="stroke: #A80036; stroke-width: 1.5;" x1="729" x2="1061" y1="250.1875" y2="250.1875"/><line style="stroke: #A80036; stroke-width: 1.5;" x1="729" x2="1061" y1="258.1875" y2="258.1875"/><text fill="#000000" font-family="sans-serif" font-size="11" lengthAdjust="spacingAndGlyphs" textLength="322" x="734" y="273.6064">apply (v1 : UMLElement,  v2 : List&lt;uml::Class&gt;) () : List&lt;uml::Class&gt;</text><!--class uml::strategies::collecting.CollectStrategy--><rect fill="#FEFECE" filter="url(#ftfuobw)" height="48" style="stroke: #A80036; stroke-width: 1.5;" width="138" x="481" y="60"/><ellipse cx="496" cy="76" fill="#ADD1B2" rx="11" ry="11" style="stroke: #A80036; stroke-width: 1.0;"/><path d="M498.7656,71.875 Q498.9219,71.6563 499.1094,71.5469 Q499.2969,71.4375 499.5156,71.4375 Q499.8906,71.4375 500.125,71.6953 Q500.3594,71.9531 500.3594,72.5625 L500.3594,74.0156 Q500.3594,74.625 500.125,74.8906 Q499.8906,75.1563 499.5156,75.1563 Q499.1719,75.1563 498.9688,74.9531 Q498.7656,74.7656 498.6563,74.25 Q498.6094,73.8906 498.4219,73.7031 Q498.0938,73.3281 497.4844,73.1094 Q496.875,72.8906 496.25,72.8906 Q495.4844,72.8906 494.8516,73.2188 Q494.2188,73.5469 493.7266,74.2969 Q493.2344,75.0469 493.2344,76.0781 L493.2344,77.1719 Q493.2344,78.4063 494.125,79.2266 Q495.0156,80.0469 496.6094,80.0469 Q497.5469,80.0469 498.2031,79.7969 Q498.5938,79.6406 499.0156,79.2031 Q499.2813,78.9375 499.4297,78.8594 Q499.5781,78.7813 499.7813,78.7813 Q500.1094,78.7813 500.3672,79.0391 Q500.625,79.2969 500.625,79.6406 Q500.625,79.9844 500.2813,80.3906 Q499.7813,80.9688 498.9844,81.2969 Q497.9063,81.75 496.6094,81.75 Q495.0938,81.75 493.8906,81.125 Q492.9063,80.625 492.2188,79.5547 Q491.5313,78.4844 491.5313,77.2031 L491.5313,76.0469 Q491.5313,74.7188 492.1484,73.5703 Q492.7656,72.4219 493.8594,71.8047 Q494.9531,71.1875 496.1875,71.1875 Q496.9219,71.1875 497.5703,71.3516 Q498.2188,71.5156 498.7656,71.875 Z "/><text fill="#000000" font-family="sans-serif" font-size="12" lengthAdjust="spacingAndGlyphs" textLength="82" x="510" y="80.9102">CollectStrategy</text><rect fill="#FFFFFF" height="17.0938" style="stroke: #000000; stroke-width: 1.0; stroke-dasharray: 2.0,2.0;" width="22" x="600" y="57"/><text fill="#000000" font-family="sans-serif" font-size="12" font-style="italic" lengthAdjust="spacingAndGlyphs" textLength="14" x="604" y="70.457">T0</text><line style="stroke: #A80036; stroke-width: 1.5;" x1="482" x2="618" y1="92" y2="92"/><line style="stroke: #A80036; stroke-width: 1.5;" x1="482" x2="618" y1="100" y2="100"/><path d="M461.34,100.66 C423.66,109.29 379.99,122.01 343,140 C305.64,158.18 268.31,187.13 241.91,209.87 " fill="none" style="stroke: #A80036; stroke-width: 1.0;"/><polygon fill="none" points="459.96,93.79,480.99,96.39,462.93,107.47,459.96,93.79" style="stroke: #A80036; stroke-width: 1.0;"/><text fill="#000000" font-family="sans-serif" font-size="13" lengthAdjust="spacingAndGlyphs" textLength="197" x="344" y="154.4951">&lt;&lt;bind T0 -&gt; List&lt;uml::Class&gt; &gt;&gt;</text><path d="M550,128.21 C550,153.83 550,185.84 550,209.71 " fill="none" style="stroke: #A80036; stroke-width: 1.0;"/><polygon fill="none" points="543,128.12,550,108.12,557,128.12,543,128.12" style="stroke: #A80036; stroke-width: 1.0;"/><text fill="#000000" font-family="sans-serif" font-size="13" lengthAdjust="spacingAndGlyphs" textLength="166" x="551" y="154.4951">&lt;&lt;bind T0 -&gt; List&lt;Entry&gt; &gt;&gt;</text><path d="M638.38,107.93 C666.91,116.56 698.3,127.39 726,140 C768.8,159.49 814,187.76 846.88,209.91 " fill="none" style="stroke: #A80036; stroke-width: 1.0;"/><polygon fill="none" points="636.4,114.64,619.17,102.31,640.33,101.21,636.4,114.64" style="stroke: #A80036; stroke-width: 1.0;"/><text fill="#000000" font-family="sans-serif" font-size="13" lengthAdjust="spacingAndGlyphs" textLength="197" x="760" y="154.4951">&lt;&lt;bind T0 -&gt; List&lt;uml::Class&gt; &gt;&gt;</text></g></svg>