<?xml version="1.0" encoding="UTF-8" standalone="no"?><svg xmlns="http://www.w3.org/2000/svg" xmlns:xlink="http://www.w3.org/1999/xlink" contentScriptType="application/ecmascript" contentStyleType="text/css" height="317px" preserveAspectRatio="none" style="width:1769px;height:317px;" version="1.1" viewBox="0 0 1769 317" width="1769px" zoomAndPan="magnify"><defs><filter height="300%" id="fuihc2k" width="300%" x="-1" y="-1"><feGaussianBlur result="blurOut" stdDeviation="2.0"/><feColorMatrix in="blurOut" result="blurOut2" type="matrix" values="0 0 0 0 0 0 0 0 0 0 0 0 0 0 0 0 0 0 .4 0"/><feOffset dx="4.0" dy="4.0" in="blurOut2" result="blurOut3"/><feBlend in="SourceGraphic" in2="blurOut3" mode="normal"/></filter></defs><g><!--cluster uml::strategies::rewriting::packagerep--><polygon fill="#FFFFFF" filter="url(#fuihc2k)" points="22,174,294,174,301,197.6094,1762,197.6094,1762,310,22,310,22,174" style="stroke: #000000; stroke-width: 2.0;"/><line style="stroke: #000000; stroke-width: 2.0;" x1="22" x2="301" y1="197.6094" y2="197.6094"/><text fill="#000000" font-family="sans-serif" font-size="14" font-weight="bold" lengthAdjust="spacingAndGlyphs" textLength="266" x="26" y="190.5332">uml::strategies::rewriting::packagerep</text><!--cluster uml::strategies::rewriting--><polygon fill="#FFFFFF" filter="url(#fuihc2k)" points="802,24,983,24,990,47.6094,993,47.6094,993,124,802,124,802,24" style="stroke: #000000; stroke-width: 2.0;"/><line style="stroke: #000000; stroke-width: 2.0;" x1="802" x2="990" y1="47.6094" y2="47.6094"/><text fill="#000000" font-family="sans-serif" font-size="14" font-weight="bold" lengthAdjust="spacingAndGlyphs" textLength="175" x="806" y="40.5332">uml::strategies::rewriting</text><!--class uml::strategies::rewriting::packagerep.DeleteAllClassesOnToplevel--><rect fill="#FEFECE" filter="url(#fuihc2k)" height="70.0234" style="stroke: #A80036; stroke-width: 1.5;" width="209" x="38.5" y="217"/><ellipse cx="62.05" cy="237.0938" fill="#ADD1B2" rx="11" ry="11" style="stroke: #A80036; stroke-width: 1.0;"/><path d="M64.8156,232.9688 Q64.9719,232.75 65.1594,232.6406 Q65.3469,232.5313 65.5656,232.5313 Q65.9406,232.5313 66.175,232.7891 Q66.4094,233.0469 66.4094,233.6563 L66.4094,235.1094 Q66.4094,235.7188 66.175,235.9844 Q65.9406,236.25 65.5656,236.25 Q65.2219,236.25 65.0188,236.0469 Q64.8156,235.8594 64.7063,235.3438 Q64.6594,234.9844 64.4719,234.7969 Q64.1438,234.4219 63.5344,234.2031 Q62.925,233.9844 62.3,233.9844 Q61.5344,233.9844 60.9016,234.3125 Q60.2688,234.6406 59.7766,235.3906 Q59.2844,236.1406 59.2844,237.1719 L59.2844,238.2656 Q59.2844,239.5 60.175,240.3203 Q61.0656,241.1406 62.6594,241.1406 Q63.5969,241.1406 64.2531,240.8906 Q64.6438,240.7344 65.0656,240.2969 Q65.3313,240.0313 65.4797,239.9531 Q65.6281,239.875 65.8313,239.875 Q66.1594,239.875 66.4172,240.1328 Q66.675,240.3906 66.675,240.7344 Q66.675,241.0781 66.3313,241.4844 Q65.8313,242.0625 65.0344,242.3906 Q63.9563,242.8438 62.6594,242.8438 Q61.1438,242.8438 59.9406,242.2188 Q58.9563,241.7188 58.2688,240.6484 Q57.5813,239.5781 57.5813,238.2969 L57.5813,237.1406 Q57.5813,235.8125 58.1984,234.6641 Q58.8156,233.5156 59.9094,232.8984 Q61.0031,232.2813 62.2375,232.2813 Q62.9719,232.2813 63.6203,232.4453 Q64.2688,232.6094 64.8156,232.9688 Z "/><text fill="#000000" font-family="sans-serif" font-size="12" font-style="italic" lengthAdjust="spacingAndGlyphs" textLength="48" x="132.95" y="234.457">«object»</text><text fill="#000000" font-family="sans-serif" font-size="12" lengthAdjust="spacingAndGlyphs" textLength="158" x="77.95" y="249.5508">DeleteAllClassesOnToplevel</text><line style="stroke: #A80036; stroke-width: 1.5;" x1="39.5" x2="246.5" y1="257.1875" y2="257.1875"/><line style="stroke: #A80036; stroke-width: 1.5;" x1="39.5" x2="246.5" y1="265.1875" y2="265.1875"/><text fill="#000000" font-family="sans-serif" font-size="11" lengthAdjust="spacingAndGlyphs" textLength="197" x="44.5" y="280.6064">apply (v1 : List&lt;uml::Class&gt;) () : Strategy</text><!--class uml::strategies::rewriting::packagerep.DeleteEmptyPackages--><rect fill="#FEFECE" filter="url(#fuihc2k)" height="70.0234" style="stroke: #A80036; stroke-width: 1.5;" width="157" x="282.5" y="217"/><ellipse cx="297.5" cy="237.0938" fill="#ADD1B2" rx="11" ry="11" style="stroke: #A80036; stroke-width: 1.0;"/><path d="M300.2656,232.9688 Q300.4219,232.75 300.6094,232.6406 Q300.7969,232.5313 301.0156,232.5313 Q301.3906,232.5313 301.625,232.7891 Q301.8594,233.0469 301.8594,233.6563 L301.8594,235.1094 Q301.8594,235.7188 301.625,235.9844 Q301.3906,236.25 301.0156,236.25 Q300.6719,236.25 300.4688,236.0469 Q300.2656,235.8594 300.1563,235.3438 Q300.1094,234.9844 299.9219,234.7969 Q299.5938,234.4219 298.9844,234.2031 Q298.375,233.9844 297.75,233.9844 Q296.9844,233.9844 296.3516,234.3125 Q295.7188,234.6406 295.2266,235.3906 Q294.7344,236.1406 294.7344,237.1719 L294.7344,238.2656 Q294.7344,239.5 295.625,240.3203 Q296.5156,241.1406 298.1094,241.1406 Q299.0469,241.1406 299.7031,240.8906 Q300.0938,240.7344 300.5156,240.2969 Q300.7813,240.0313 300.9297,239.9531 Q301.0781,239.875 301.2813,239.875 Q301.6094,239.875 301.8672,240.1328 Q302.125,240.3906 302.125,240.7344 Q302.125,241.0781 301.7813,241.4844 Q301.2813,242.0625 300.4844,242.3906 Q299.4063,242.8438 298.1094,242.8438 Q296.5938,242.8438 295.3906,242.2188 Q294.4063,241.7188 293.7188,240.6484 Q293.0313,239.5781 293.0313,238.2969 L293.0313,237.1406 Q293.0313,235.8125 293.6484,234.6641 Q294.2656,233.5156 295.3594,232.8984 Q296.4531,232.2813 297.6875,232.2813 Q298.4219,232.2813 299.0703,232.4453 Q299.7188,232.6094 300.2656,232.9688 Z "/><text fill="#000000" font-family="sans-serif" font-size="12" font-style="italic" lengthAdjust="spacingAndGlyphs" textLength="48" x="350" y="234.457">«object»</text><text fill="#000000" font-family="sans-serif" font-size="12" lengthAdjust="spacingAndGlyphs" textLength="125" x="311.5" y="249.5508">DeleteEmptyPackages</text><line style="stroke: #A80036; stroke-width: 1.5;" x1="283.5" x2="438.5" y1="257.1875" y2="257.1875"/><line style="stroke: #A80036; stroke-width: 1.5;" x1="283.5" x2="438.5" y1="265.1875" y2="265.1875"/><text fill="#000000" font-family="sans-serif" font-size="11" lengthAdjust="spacingAndGlyphs" textLength="137" x="288.5" y="280.6064">apply (v1 : Unit) () : Strategy</text><!--class uml::strategies::rewriting::packagerep.DeleteInnerAssocStrat--><rect fill="#FEFECE" filter="url(#fuihc2k)" height="83.8594" style="stroke: #A80036; stroke-width: 1.5;" width="499" x="474.5" y="210"/><ellipse cx="658.25" cy="230.0938" fill="#ADD1B2" rx="11" ry="11" style="stroke: #A80036; stroke-width: 1.0;"/><path d="M661.0156,225.9688 Q661.1719,225.75 661.3594,225.6406 Q661.5469,225.5313 661.7656,225.5313 Q662.1406,225.5313 662.375,225.7891 Q662.6094,226.0469 662.6094,226.6563 L662.6094,228.1094 Q662.6094,228.7188 662.375,228.9844 Q662.1406,229.25 661.7656,229.25 Q661.4219,229.25 661.2188,229.0469 Q661.0156,228.8594 660.9063,228.3438 Q660.8594,227.9844 660.6719,227.7969 Q660.3438,227.4219 659.7344,227.2031 Q659.125,226.9844 658.5,226.9844 Q657.7344,226.9844 657.1016,227.3125 Q656.4688,227.6406 655.9766,228.3906 Q655.4844,229.1406 655.4844,230.1719 L655.4844,231.2656 Q655.4844,232.5 656.375,233.3203 Q657.2656,234.1406 658.8594,234.1406 Q659.7969,234.1406 660.4531,233.8906 Q660.8438,233.7344 661.2656,233.2969 Q661.5313,233.0313 661.6797,232.9531 Q661.8281,232.875 662.0313,232.875 Q662.3594,232.875 662.6172,233.1328 Q662.875,233.3906 662.875,233.7344 Q662.875,234.0781 662.5313,234.4844 Q662.0313,235.0625 661.2344,235.3906 Q660.1563,235.8438 658.8594,235.8438 Q657.3438,235.8438 656.1406,235.2188 Q655.1563,234.7188 654.4688,233.6484 Q653.7813,232.5781 653.7813,231.2969 L653.7813,230.1406 Q653.7813,228.8125 654.3984,227.6641 Q655.0156,226.5156 656.1094,225.8984 Q657.2031,225.2813 658.4375,225.2813 Q659.1719,225.2813 659.8203,225.4453 Q660.4688,225.6094 661.0156,225.9688 Z "/><text fill="#000000" font-family="sans-serif" font-size="12" font-style="italic" lengthAdjust="spacingAndGlyphs" textLength="48" x="716.25" y="227.457">«object»</text><text fill="#000000" font-family="sans-serif" font-size="12" lengthAdjust="spacingAndGlyphs" textLength="123" x="678.75" y="242.5508">DeleteInnerAssocStrat</text><line style="stroke: #A80036; stroke-width: 1.5;" x1="475.5" x2="972.5" y1="250.1875" y2="250.1875"/><line style="stroke: #A80036; stroke-width: 1.5;" x1="475.5" x2="972.5" y1="258.1875" y2="258.1875"/><rect fill="#F24D5C" height="6" style="stroke: #C82930; stroke-width: 1.0;" width="6" x="482.5" y="267.6055"/><text fill="#000000" font-family="sans-serif" font-size="11" lengthAdjust="spacingAndGlyphs" textLength="473" x="494.5" y="273.6064">deleteRel&lt; T : HigherBound&lt;UMLElement&gt;  &gt; (elements : List&lt;T&gt;,  v1 : List&lt;uml::Class&gt;) () : List&lt;T&gt;</text><text fill="#000000" font-family="sans-serif" font-size="11" lengthAdjust="spacingAndGlyphs" textLength="197" x="494.5" y="287.4424">apply (v1 : List&lt;uml::Class&gt;) () : Strategy</text><!--class uml::strategies::rewriting::packagerep.InsertClassesInPackageStrat--><rect fill="#FEFECE" filter="url(#fuihc2k)" height="70.0234" style="stroke: #A80036; stroke-width: 1.5;" width="209" x="1008.5" y="217"/><ellipse cx="1030.7" cy="237.0938" fill="#ADD1B2" rx="11" ry="11" style="stroke: #A80036; stroke-width: 1.0;"/><path d="M1033.4656,232.9688 Q1033.6219,232.75 1033.8094,232.6406 Q1033.9969,232.5313 1034.2156,232.5313 Q1034.5906,232.5313 1034.825,232.7891 Q1035.0594,233.0469 1035.0594,233.6563 L1035.0594,235.1094 Q1035.0594,235.7188 1034.825,235.9844 Q1034.5906,236.25 1034.2156,236.25 Q1033.8719,236.25 1033.6688,236.0469 Q1033.4656,235.8594 1033.3563,235.3438 Q1033.3094,234.9844 1033.1219,234.7969 Q1032.7938,234.4219 1032.1844,234.2031 Q1031.575,233.9844 1030.95,233.9844 Q1030.1844,233.9844 1029.5516,234.3125 Q1028.9188,234.6406 1028.4266,235.3906 Q1027.9344,236.1406 1027.9344,237.1719 L1027.9344,238.2656 Q1027.9344,239.5 1028.825,240.3203 Q1029.7156,241.1406 1031.3094,241.1406 Q1032.2469,241.1406 1032.9031,240.8906 Q1033.2938,240.7344 1033.7156,240.2969 Q1033.9813,240.0313 1034.1297,239.9531 Q1034.2781,239.875 1034.4813,239.875 Q1034.8094,239.875 1035.0672,240.1328 Q1035.325,240.3906 1035.325,240.7344 Q1035.325,241.0781 1034.9813,241.4844 Q1034.4813,242.0625 1033.6844,242.3906 Q1032.6063,242.8438 1031.3094,242.8438 Q1029.7938,242.8438 1028.5906,242.2188 Q1027.6063,241.7188 1026.9188,240.6484 Q1026.2313,239.5781 1026.2313,238.2969 L1026.2313,237.1406 Q1026.2313,235.8125 1026.8484,234.6641 Q1027.4656,233.5156 1028.5594,232.8984 Q1029.6531,232.2813 1030.8875,232.2813 Q1031.6219,232.2813 1032.2703,232.4453 Q1032.9188,232.6094 1033.4656,232.9688 Z "/><text fill="#000000" font-family="sans-serif" font-size="12" font-style="italic" lengthAdjust="spacingAndGlyphs" textLength="48" x="1102.8" y="234.457">«object»</text><text fill="#000000" font-family="sans-serif" font-size="12" lengthAdjust="spacingAndGlyphs" textLength="161" x="1046.3" y="249.5508">InsertClassesInPackageStrat</text><line style="stroke: #A80036; stroke-width: 1.5;" x1="1009.5" x2="1216.5" y1="257.1875" y2="257.1875"/><line style="stroke: #A80036; stroke-width: 1.5;" x1="1009.5" x2="1216.5" y1="265.1875" y2="265.1875"/><text fill="#000000" font-family="sans-serif" font-size="11" lengthAdjust="spacingAndGlyphs" textLength="197" x="1014.5" y="280.6064">apply (v1 : List&lt;uml::Class&gt;) () : Strategy</text><!--class uml::strategies::rewriting::packagerep.InsertInnerNamespaceRelsStrat--><rect fill="#FEFECE" filter="url(#fuihc2k)" height="70.0234" style="stroke: #A80036; stroke-width: 1.5;" width="210" x="1253" y="217"/><ellipse cx="1268" cy="237.0938" fill="#ADD1B2" rx="11" ry="11" style="stroke: #A80036; stroke-width: 1.0;"/><path d="M1270.7656,232.9688 Q1270.9219,232.75 1271.1094,232.6406 Q1271.2969,232.5313 1271.5156,232.5313 Q1271.8906,232.5313 1272.125,232.7891 Q1272.3594,233.0469 1272.3594,233.6563 L1272.3594,235.1094 Q1272.3594,235.7188 1272.125,235.9844 Q1271.8906,236.25 1271.5156,236.25 Q1271.1719,236.25 1270.9688,236.0469 Q1270.7656,235.8594 1270.6563,235.3438 Q1270.6094,234.9844 1270.4219,234.7969 Q1270.0938,234.4219 1269.4844,234.2031 Q1268.875,233.9844 1268.25,233.9844 Q1267.4844,233.9844 1266.8516,234.3125 Q1266.2188,234.6406 1265.7266,235.3906 Q1265.2344,236.1406 1265.2344,237.1719 L1265.2344,238.2656 Q1265.2344,239.5 1266.125,240.3203 Q1267.0156,241.1406 1268.6094,241.1406 Q1269.5469,241.1406 1270.2031,240.8906 Q1270.5938,240.7344 1271.0156,240.2969 Q1271.2813,240.0313 1271.4297,239.9531 Q1271.5781,239.875 1271.7813,239.875 Q1272.1094,239.875 1272.3672,240.1328 Q1272.625,240.3906 1272.625,240.7344 Q1272.625,241.0781 1272.2813,241.4844 Q1271.7813,242.0625 1270.9844,242.3906 Q1269.9063,242.8438 1268.6094,242.8438 Q1267.0938,242.8438 1265.8906,242.2188 Q1264.9063,241.7188 1264.2188,240.6484 Q1263.5313,239.5781 1263.5313,238.2969 L1263.5313,237.1406 Q1263.5313,235.8125 1264.1484,234.6641 Q1264.7656,233.5156 1265.8594,232.8984 Q1266.9531,232.2813 1268.1875,232.2813 Q1268.9219,232.2813 1269.5703,232.4453 Q1270.2188,232.6094 1270.7656,232.9688 Z "/><text fill="#000000" font-family="sans-serif" font-size="12" font-style="italic" lengthAdjust="spacingAndGlyphs" textLength="48" x="1347" y="234.457">«object»</text><text fill="#000000" font-family="sans-serif" font-size="12" lengthAdjust="spacingAndGlyphs" textLength="178" x="1282" y="249.5508">InsertInnerNamespaceRelsStrat</text><line style="stroke: #A80036; stroke-width: 1.5;" x1="1254" x2="1462" y1="257.1875" y2="257.1875"/><line style="stroke: #A80036; stroke-width: 1.5;" x1="1254" x2="1462" y1="265.1875" y2="265.1875"/><text fill="#000000" font-family="sans-serif" font-size="11" lengthAdjust="spacingAndGlyphs" textLength="197" x="1259" y="280.6064">apply (v1 : List&lt;uml::Class&gt;) () : Strategy</text><!--class uml::strategies::rewriting::packagerep.InsertPackagesFromNamespacesStrat--><rect fill="#FEFECE" filter="url(#fuihc2k)" height="70.0234" style="stroke: #A80036; stroke-width: 1.5;" width="247" x="1498.5" y="217"/><ellipse cx="1513.5" cy="237.0938" fill="#ADD1B2" rx="11" ry="11" style="stroke: #A80036; stroke-width: 1.0;"/><path d="M1516.2656,232.9688 Q1516.4219,232.75 1516.6094,232.6406 Q1516.7969,232.5313 1517.0156,232.5313 Q1517.3906,232.5313 1517.625,232.7891 Q1517.8594,233.0469 1517.8594,233.6563 L1517.8594,235.1094 Q1517.8594,235.7188 1517.625,235.9844 Q1517.3906,236.25 1517.0156,236.25 Q1516.6719,236.25 1516.4688,236.0469 Q1516.2656,235.8594 1516.1563,235.3438 Q1516.1094,234.9844 1515.9219,234.7969 Q1515.5938,234.4219 1514.9844,234.2031 Q1514.375,233.9844 1513.75,233.9844 Q1512.9844,233.9844 1512.3516,234.3125 Q1511.7188,234.6406 1511.2266,235.3906 Q1510.7344,236.1406 1510.7344,237.1719 L1510.7344,238.2656 Q1510.7344,239.5 1511.625,240.3203 Q1512.5156,241.1406 1514.1094,241.1406 Q1515.0469,241.1406 1515.7031,240.8906 Q1516.0938,240.7344 1516.5156,240.2969 Q1516.7813,240.0313 1516.9297,239.9531 Q1517.0781,239.875 1517.2813,239.875 Q1517.6094,239.875 1517.8672,240.1328 Q1518.125,240.3906 1518.125,240.7344 Q1518.125,241.0781 1517.7813,241.4844 Q1517.2813,242.0625 1516.4844,242.3906 Q1515.4063,242.8438 1514.1094,242.8438 Q1512.5938,242.8438 1511.3906,242.2188 Q1510.4063,241.7188 1509.7188,240.6484 Q1509.0313,239.5781 1509.0313,238.2969 L1509.0313,237.1406 Q1509.0313,235.8125 1509.6484,234.6641 Q1510.2656,233.5156 1511.3594,232.8984 Q1512.4531,232.2813 1513.6875,232.2813 Q1514.4219,232.2813 1515.0703,232.4453 Q1515.7188,232.6094 1516.2656,232.9688 Z "/><text fill="#000000" font-family="sans-serif" font-size="12" font-style="italic" lengthAdjust="spacingAndGlyphs" textLength="48" x="1611" y="234.457">«object»</text><text fill="#000000" font-family="sans-serif" font-size="12" lengthAdjust="spacingAndGlyphs" textLength="215" x="1527.5" y="249.5508">InsertPackagesFromNamespacesStrat</text><line style="stroke: #A80036; stroke-width: 1.5;" x1="1499.5" x2="1744.5" y1="257.1875" y2="257.1875"/><line style="stroke: #A80036; stroke-width: 1.5;" x1="1499.5" x2="1744.5" y1="265.1875" y2="265.1875"/><text fill="#000000" font-family="sans-serif" font-size="11" lengthAdjust="spacingAndGlyphs" textLength="173" x="1504.5" y="280.6064">apply (v1 : List&lt;Entry&gt;) () : Strategy</text><!--class uml::strategies::rewriting.RewriteStrategy--><rect fill="#FEFECE" filter="url(#fuihc2k)" height="48" style="stroke: #A80036; stroke-width: 1.5;" width="142" x="826" y="60"/><ellipse cx="841" cy="76" fill="#ADD1B2" rx="11" ry="11" style="stroke: #A80036; stroke-width: 1.0;"/><path d="M843.7656,71.875 Q843.9219,71.6563 844.1094,71.5469 Q844.2969,71.4375 844.5156,71.4375 Q844.8906,71.4375 845.125,71.6953 Q845.3594,71.9531 845.3594,72.5625 L845.3594,74.0156 Q845.3594,74.625 845.125,74.8906 Q844.8906,75.1563 844.5156,75.1563 Q844.1719,75.1563 843.9688,74.9531 Q843.7656,74.7656 843.6563,74.25 Q843.6094,73.8906 843.4219,73.7031 Q843.0938,73.3281 842.4844,73.1094 Q841.875,72.8906 841.25,72.8906 Q840.4844,72.8906 839.8516,73.2188 Q839.2188,73.5469 838.7266,74.2969 Q838.2344,75.0469 838.2344,76.0781 L838.2344,77.1719 Q838.2344,78.4063 839.125,79.2266 Q840.0156,80.0469 841.6094,80.0469 Q842.5469,80.0469 843.2031,79.7969 Q843.5938,79.6406 844.0156,79.2031 Q844.2813,78.9375 844.4297,78.8594 Q844.5781,78.7813 844.7813,78.7813 Q845.1094,78.7813 845.3672,79.0391 Q845.625,79.2969 845.625,79.6406 Q845.625,79.9844 845.2813,80.3906 Q844.7813,80.9688 843.9844,81.2969 Q842.9063,81.75 841.6094,81.75 Q840.0938,81.75 838.8906,81.125 Q837.9063,80.625 837.2188,79.5547 Q836.5313,78.4844 836.5313,77.2031 L836.5313,76.0469 Q836.5313,74.7188 837.1484,73.5703 Q837.7656,72.4219 838.8594,71.8047 Q839.9531,71.1875 841.1875,71.1875 Q841.9219,71.1875 842.5703,71.3516 Q843.2188,71.5156 843.7656,71.875 Z "/><text fill="#000000" font-family="sans-serif" font-size="12" lengthAdjust="spacingAndGlyphs" textLength="86" x="855" y="80.9102">RewriteStrategy</text><rect fill="#FFFFFF" height="17.0938" style="stroke: #000000; stroke-width: 1.0; stroke-dasharray: 2.0,2.0;" width="22" x="949" y="57"/><text fill="#000000" font-family="sans-serif" font-size="12" font-style="italic" lengthAdjust="spacingAndGlyphs" textLength="14" x="953" y="70.457">T0</text><line style="stroke: #A80036; stroke-width: 1.5;" x1="827" x2="967" y1="92" y2="92"/><line style="stroke: #A80036; stroke-width: 1.5;" x1="827" x2="967" y1="100" y2="100"/><path d="M805.61,86.21 C655.94,89.32 365.82,100.43 272,140 C231.98,156.88 195.39,190.97 171.48,216.95 " fill="none" style="stroke: #A80036; stroke-width: 1.0;"/><polygon fill="none" points="805.63,79.21,825.76,85.82,805.9,93.2,805.63,79.21" style="stroke: #A80036; stroke-width: 1.0;"/><text fill="#000000" font-family="sans-serif" font-size="13" lengthAdjust="spacingAndGlyphs" textLength="197" x="273" y="154.4951">&lt;&lt;bind T0 -&gt; List&lt;uml::Class&gt; &gt;&gt;</text><path d="M805.96,87.6 C713.75,93.4 569.14,111.36 457,166 C431.99,178.19 408.51,198.74 391.04,216.58 " fill="none" style="stroke: #A80036; stroke-width: 1.0;"/><polygon fill="none" points="805.58,80.61,825.94,86.48,806.36,94.59,805.58,80.61" style="stroke: #A80036; stroke-width: 1.0;"/><text fill="#000000" font-family="sans-serif" font-size="13" lengthAdjust="spacingAndGlyphs" textLength="121" x="514" y="154.4951">&lt;&lt;bind T0 -&gt; Unit &gt;&gt;</text><path d="M838.31,119.35 C829.13,125.73 820.03,132.71 812,140 C789.25,160.67 767.73,187.62 751.67,209.79 " fill="none" style="stroke: #A80036; stroke-width: 1.0;"/><polygon fill="none" points="834.71,113.34,855.27,108.21,842.4,125.04,834.71,113.34" style="stroke: #A80036; stroke-width: 1.0;"/><text fill="#000000" font-family="sans-serif" font-size="13" lengthAdjust="spacingAndGlyphs" textLength="197" x="813" y="154.4951">&lt;&lt;bind T0 -&gt; List&lt;uml::Class&gt; &gt;&gt;</text><path d="M977.29,116.94 C990.43,123.68 1003.49,131.4 1015,140 C1043.93,161.62 1070.62,192.95 1088.82,216.81 " fill="none" style="stroke: #A80036; stroke-width: 1.0;"/><polygon fill="none" points="973.81,123.03,958.81,108.06,979.87,110.41,973.81,123.03" style="stroke: #A80036; stroke-width: 1.0;"/><text fill="#000000" font-family="sans-serif" font-size="13" lengthAdjust="spacingAndGlyphs" textLength="197" x="1035" y="154.4951">&lt;&lt;bind T0 -&gt; List&lt;uml::Class&gt; &gt;&gt;</text><path d="M988.41,93.45 C1074.91,102.55 1197.76,118.64 1241,140 C1277.53,158.04 1310.33,191.43 1331.84,216.9 " fill="none" style="stroke: #A80036; stroke-width: 1.0;"/><polygon fill="none" points="987.55,100.4,968.37,91.4,988.98,86.47,987.55,100.4" style="stroke: #A80036; stroke-width: 1.0;"/><text fill="#000000" font-family="sans-serif" font-size="13" lengthAdjust="spacingAndGlyphs" textLength="197" x="1268" y="154.4951">&lt;&lt;bind T0 -&gt; List&lt;uml::Class&gt; &gt;&gt;</text><path d="M988.3,87.69 C1128.02,92.83 1387.77,106.63 1474,140 C1517.88,156.98 1560.01,190.88 1588.02,216.77 " fill="none" style="stroke: #A80036; stroke-width: 1.0;"/><polygon fill="none" points="987.92,94.69,968.18,86.99,988.41,80.69,987.92,94.69" style="stroke: #A80036; stroke-width: 1.0;"/><text fill="#000000" font-family="sans-serif" font-size="13" lengthAdjust="spacingAndGlyphs" textLength="166" x="1511" y="154.4951">&lt;&lt;bind T0 -&gt; List&lt;Entry&gt; &gt;&gt;</text></g></svg>