<?xml version="1.0" encoding="UTF-8" standalone="no"?><svg xmlns="http://www.w3.org/2000/svg" xmlns:xlink="http://www.w3.org/1999/xlink" contentScriptType="application/ecmascript" contentStyleType="text/css" height="289px" preserveAspectRatio="none" style="width:435px;height:289px;" version="1.1" viewBox="0 0 435 289" width="435px" zoomAndPan="magnify"><defs><filter height="300%" id="f1natbgszctdxk" width="300%" x="-1" y="-1"><feGaussianBlur result="blurOut" stdDeviation="2.0"/><feColorMatrix in="blurOut" result="blurOut2" type="matrix" values="0 0 0 0 0 0 0 0 0 0 0 0 0 0 0 0 0 0 .4 0"/><feOffset dx="4.0" dy="4.0" in="blurOut2" result="blurOut3"/><feBlend in="SourceGraphic" in2="blurOut3" mode="normal"/></filter></defs><g><!--MD5=[e74d53341affa6b44ea2add11c2e98f2]
cluster animals::extension--><polygon fill="#FFFFFF" filter="url(#f1natbgszctdxk)" points="240,136,377,136,384,159.6094,418,159.6094,418,282,240,282,240,136" style="stroke:#000000;stroke-width:1.5;"/><line style="stroke:#000000;stroke-width:1.5;" x1="240" x2="384" y1="159.6094" y2="159.6094"/><text fill="#000000" font-family="sans-serif" font-size="14" font-weight="bold" lengthAdjust="spacing" textLength="131" x="244" y="152.5332">animals::extension</text><!--MD5=[34a3abc76313d552f84721923c8dec68]
cluster animals--><polygon fill="#FFFFFF" filter="url(#f1natbgszctdxk)" points="16,6,75,6,82,29.6094,216,29.6094,216,282,16,282,16,6" style="stroke:#000000;stroke-width:1.5;"/><line style="stroke:#000000;stroke-width:1.5;" x1="16" x2="82" y1="29.6094" y2="29.6094"/><text fill="#000000" font-family="sans-serif" font-size="14" font-weight="bold" lengthAdjust="spacing" textLength="53" x="20" y="22.5332">animals</text><!--MD5=[025f26a52754033108668fe52c5fe8f8]
class animals::extension.Olm--><rect codeLine="2" fill="#FEFECE" filter="url(#f1natbgszctdxk)" height="93.6953" id="animals::extension.Olm" style="stroke:#A80036;stroke-width:1.5;" width="146" x="256" y="172"/><ellipse cx="293.5" cy="192.0938" fill="#ADD1B2" rx="11" ry="11" style="stroke:#A80036;stroke-width:1.0;"/><path d="M295.5,188.5938 Q295.7031,188.0938 295.9375,187.8438 Q296.1719,187.5938 296.4375,187.5938 Q296.9063,187.5938 297.2031,187.875 Q297.5,188.1563 297.5,188.8125 L297.5,190.375 Q297.5,191.0313 297.2188,191.3125 Q296.9375,191.5938 296.5,191.5938 Q296.1094,191.5938 295.8594,191.4219 Q295.6094,191.25 295.5,190.7969 Q295.4531,190.4844 295.2813,190.3125 Q294.9688,189.9844 294.4063,189.7969 Q293.8438,189.5938 293.2813,189.5938 Q292.5781,189.5938 291.9844,189.875 Q291.4063,190.1563 290.9531,190.7813 Q290.5,191.4063 290.5,192.2656 L290.5,193.1875 Q290.5,194.2188 291.3438,194.9063 Q292.1875,195.5938 293.6875,195.5938 Q294.5781,195.5938 295.2031,195.3906 Q295.5625,195.2813 295.9688,194.9219 Q296.2344,194.7188 296.375,194.6563 Q296.5156,194.5938 296.6875,194.5938 Q297.0156,194.5938 297.25,194.8594 Q297.5,195.1094 297.5,195.4688 Q297.5,195.8125 297.1563,196.2188 Q296.6563,196.8125 295.8594,197.1406 Q294.8125,197.5938 293.5313,197.5938 Q292.0313,197.5938 290.8281,197 Q289.8594,196.5313 289.1719,195.5156 Q288.5,194.5 288.5,193.2969 L288.5,192.2031 Q288.5,190.9531 289.0938,189.8594 Q289.7031,188.7656 290.75,188.1875 Q291.8125,187.5938 293,187.5938 Q293.7188,187.5938 294.3438,187.8438 Q294.9688,188.0938 295.5,188.5938 Z " fill="#000000"/><text fill="#000000" font-family="sans-serif" font-size="12" font-style="italic" lengthAdjust="spacing" textLength="68" x="310.5" y="189.457">«caseclass»</text><text fill="#000000" font-family="sans-serif" font-size="12" lengthAdjust="spacing" textLength="23" x="333" y="204.5508">Olm</text><line style="stroke:#A80036;stroke-width:1.5;" x1="257" x2="401" y1="212.1875" y2="212.1875"/><text fill="#000000" font-family="sans-serif" font-size="11" lengthAdjust="spacing" textLength="134" x="262" y="227.6064">«ctor»Olm (location : String)</text><text fill="#000000" font-family="sans-serif" font-size="11" lengthAdjust="spacing" textLength="41" x="262" y="259.2783">isSealed</text><line style="stroke:#A80036;stroke-width:1.0;" x1="257" x2="291" y1="240.9414" y2="240.9414"/><text fill="#000000" font-family="sans-serif" font-size="11" lengthAdjust="spacing" textLength="76" x="291" y="244.9424">&lt;&lt;scalaclass&gt;&gt;</text><line style="stroke:#A80036;stroke-width:1.0;" x1="367" x2="401" y1="240.9414" y2="240.9414"/><!--MD5=[e434264d9be1a49c9c00e397b4dcca0c]
class animals.Wombat--><rect codeLine="9" fill="#FEFECE" filter="url(#f1natbgszctdxk)" height="93.6953" id="animals.Wombat" style="stroke:#A80036;stroke-width:1.5;" width="167" x="32.5" y="172"/><ellipse cx="79.75" cy="192.0938" fill="#ADD1B2" rx="11" ry="11" style="stroke:#A80036;stroke-width:1.0;"/><path d="M81.75,188.5938 Q81.9531,188.0938 82.1875,187.8438 Q82.4219,187.5938 82.6875,187.5938 Q83.1563,187.5938 83.4531,187.875 Q83.75,188.1563 83.75,188.8125 L83.75,190.375 Q83.75,191.0313 83.4688,191.3125 Q83.1875,191.5938 82.75,191.5938 Q82.3594,191.5938 82.1094,191.4219 Q81.8594,191.25 81.75,190.7969 Q81.7031,190.4844 81.5313,190.3125 Q81.2188,189.9844 80.6563,189.7969 Q80.0938,189.5938 79.5313,189.5938 Q78.8281,189.5938 78.2344,189.875 Q77.6563,190.1563 77.2031,190.7813 Q76.75,191.4063 76.75,192.2656 L76.75,193.1875 Q76.75,194.2188 77.5938,194.9063 Q78.4375,195.5938 79.9375,195.5938 Q80.8281,195.5938 81.4531,195.3906 Q81.8125,195.2813 82.2188,194.9219 Q82.4844,194.7188 82.625,194.6563 Q82.7656,194.5938 82.9375,194.5938 Q83.2656,194.5938 83.5,194.8594 Q83.75,195.1094 83.75,195.4688 Q83.75,195.8125 83.4063,196.2188 Q82.9063,196.8125 82.1094,197.1406 Q81.0625,197.5938 79.7813,197.5938 Q78.2813,197.5938 77.0781,197 Q76.1094,196.5313 75.4219,195.5156 Q74.75,194.5 74.75,193.2969 L74.75,192.2031 Q74.75,190.9531 75.3438,189.8594 Q75.9531,188.7656 77,188.1875 Q78.0625,187.5938 79.25,187.5938 Q79.9688,187.5938 80.5938,187.8438 Q81.2188,188.0938 81.75,188.5938 Z " fill="#000000"/><text fill="#000000" font-family="sans-serif" font-size="12" font-style="italic" lengthAdjust="spacing" textLength="68" x="98.25" y="189.457">«caseclass»</text><text fill="#000000" font-family="sans-serif" font-size="12" lengthAdjust="spacing" textLength="46" x="109.25" y="204.5508">Wombat</text><line style="stroke:#A80036;stroke-width:1.5;" x1="33.5" x2="198.5" y1="212.1875" y2="212.1875"/><text fill="#000000" font-family="sans-serif" font-size="11" lengthAdjust="spacing" textLength="155" x="38.5" y="227.6064">«ctor»Wombat (location : String)</text><text fill="#000000" font-family="sans-serif" font-size="11" lengthAdjust="spacing" textLength="41" x="38.5" y="259.2783">isSealed</text><line style="stroke:#A80036;stroke-width:1.0;" x1="33.5" x2="78" y1="240.9414" y2="240.9414"/><text fill="#000000" font-family="sans-serif" font-size="11" lengthAdjust="spacing" textLength="76" x="78" y="244.9424">&lt;&lt;scalaclass&gt;&gt;</text><line style="stroke:#A80036;stroke-width:1.0;" x1="154" x2="198.5" y1="240.9414" y2="240.9414"/><!--MD5=[7f7a985e29bef23f08069ec2bf0f6402]
class animals.Animal--><rect codeLine="14" fill="#FEFECE" filter="url(#f1natbgszctdxk)" height="70.0234" id="animals.Animal" style="stroke:#A80036;stroke-width:1.5;" width="86" x="93" y="42"/><ellipse cx="114.75" cy="62.0938" fill="#A9DCDF" rx="11" ry="11" style="stroke:#A80036;stroke-width:1.0;"/><path d="M116.5,63.5938 L113.2031,63.5938 L112.7656,64.5938 L112.7656,64.5938 L113.2344,64.5938 L113.75,65.2188 L113.75,65.5938 L113.75,65.9688 L113.2344,66.5938 L112.7656,66.5938 L110.875,66.5938 L110.2656,66.5938 L109.75,65.9688 L109.75,65.5938 L109.75,65.2188 L110.2656,64.5938 L110.875,64.5938 L113.1875,58.5938 L112.3125,58.5938 L111.2656,58.5938 L110.75,57.9688 L110.75,57.5938 L110.75,57.2188 L111.2656,56.5938 L112.3125,56.5938 L115.9844,56.5938 L118.6719,64.5938 L119.2344,64.5938 L119.2344,64.5938 L119.75,65.2188 L119.75,65.5938 L119.75,65.9688 L119.2344,66.5938 L118.6719,66.5938 L116.7813,66.5938 L116.2656,66.5938 L115.75,65.9688 L115.75,65.5938 L115.75,65.2188 L116.2656,64.5938 L116.7813,64.5938 L116.7813,64.5938 L116.5,63.5938 Z M115.9531,61.5938 L114.75,58.0156 L113.7188,61.5938 L115.9531,61.5938 Z " fill="#000000"/><text fill="#000000" font-family="sans-serif" font-size="12" font-style="italic" lengthAdjust="spacing" textLength="34" x="132.75" y="59.457">«trait»</text><text fill="#000000" font-family="sans-serif" font-size="12" font-style="italic" lengthAdjust="spacing" textLength="39" x="130.25" y="74.5508">Animal</text><line style="stroke:#A80036;stroke-width:1.5;" x1="94" x2="178" y1="82.1875" y2="82.1875"/><text fill="#000000" font-family="sans-serif" font-size="11" lengthAdjust="spacing" textLength="74" x="99" y="97.6064">location : String</text><line style="stroke:#A80036;stroke-width:1.5;" x1="94" x2="178" y1="104.0234" y2="104.0234"/><!--MD5=[83d69b88314fcfb9a34c004d02ee8c8e]
reverse link animals.Animal to animals.Wombat--><path codeLine="19" d="M128.22,132.49 C126.35,145.53 124.38,159.33 122.58,171.95 " fill="none" id="animals.Animal-backto-animals.Wombat" style="stroke:#A80036;stroke-width:1.0;"/><polygon fill="none" points="121.35,131.06,131.11,112.25,135.21,133.04,121.35,131.06" style="stroke:#A80036;stroke-width:1.0;"/><!--MD5=[e6e1e81ed7b265db8bee988df3ea3814]
reverse link animals.Animal to animals::extension.Olm--><path codeLine="20" d="M196.38,114.7 C203.07,119.08 209.73,123.56 216,128 C235.25,141.61 255.6,157.36 273.64,171.85 " fill="none" id="animals.Animal-backto-animals::extension.Olm" style="stroke:#A80036;stroke-width:1.0;"/><polygon fill="none" points="192.45,120.5,179.35,103.84,199.98,108.7,192.45,120.5" style="stroke:#A80036;stroke-width:1.0;"/><!--MD5=[6d1198bdb58a71d10afaff965f8cbcff]
@startuml need_to_find_id
package animals::extension{
    class animals::extension.Olm << caseclass >>{
        << ctor >>Olm (location : String)  
    - - <<scalaclass>> - -
        isSealed
    }
}
package animals{
    class animals.Wombat << caseclass >>{
        << ctor >>Wombat (location : String)  
    - - <<scalaclass>> - -
        isSealed
    }
    abstract class animals.Animal << trait >>{
        location : String 
         
    }
}
animals.Animal <|- - animals.Wombat 
animals.Animal <|- - animals::extension.Olm 
@enduml

PlantUML version 1.2021.01(Tue Feb 02 08:55:08 CET 2021)
(GPL source distribution)
Java Runtime: OpenJDK Runtime Environment
JVM: OpenJDK 64-Bit Server VM
Default Encoding: Cp1252
Language: de
Country: DE
--></g></svg>